<svg xmlns="http://www.w3.org/2000/svg" viewBox="0 0 642 302"><path d="M362.5 121.5v128m-151-34v34m-151-200v200m0 0h554m-559-49h5m-5.5-52h5m-5-49h5m-5-50h5.5M67.2 270v-3.4h-1.8l-2.6 3.4H61l2.8-3.4c-1.2-.2-2-1-2-2.4 0-1.6 1-2.4 2.6-2.4h4.2v8.3h-1.4zm-2.4-7.1c-1.1 0-1.6.4-1.6 1.2 0 .8.5 1.2 1.6 1.2h2.4v-2.5h-2.4zm5.8 7.1v-8.3H72v3.3h4.1v-3.3h1.4v8.3h-1.4v-3.8H72v3.8h-1.4zm8.9-8.3h3.8c1.4 0 2.8.3 2.8 2 0 .9-.4 1.4-1.2 1.8 1 .2 1.6.9 1.6 2 0 1.4-1 2.4-2.5 2.4h-4.5v-8.2zm5.2 2.3c0-.7-.4-1.1-1.6-1.1h-2.4v2.2h2.4c1.2 0 1.6-.4 1.6-1.1zm-3.9 4.8h2.9c.9 0 1.4-.6 1.4-1.4 0-.8-.5-1.2-1.6-1.2h-2.7v2.6zm37 1.4c-.6 0-1.4-.4-1.7-.8v3.8h-1.3v-3.8c-.3.4-1.1.8-1.7.8-2.5 0-3.3-2.1-3.3-4.4 0-2.6 1.2-4.2 3.2-4.2.7 0 1.5.5 1.8.9v-3.8h1.3v3.8c.3-.4 1.1-.9 1.8-.9 2 0 3.2 1.6 3.2 4.2.1 2.2-.8 4.4-3.3 4.4zm-3.1-6.4c-.3-.9-1.1-1.2-1.7-1.2-1.4 0-2 1.3-2 3.1 0 1.5.4 3.3 2.1 3.3.8 0 1.5-.5 1.6-1.1v-4.1zm3.1-1.1c-.6 0-1.4.3-1.7 1.2v4.2c.1.6.8 1.1 1.6 1.1 1.6 0 2.1-1.8 2.1-3.3 0-1.9-.6-3.2-2-3.2zm8.5 7.6c-2.4 0-3.9-1.6-3.9-4.3 0-2.7 1.6-4.5 3.8-4.5 2.7 0 3.7 2.2 3.7 4.5v.2h-6.2v.1c0 1.8 1 2.8 2.6 2.8 1.2 0 1.8-.5 2.2-1.8h1.3c-.3 2-1.6 3-3.5 3zm-.1-7.7c-1.3 0-2.3 1-2.4 2.5h4.8c-.2-1.5-1-2.5-2.4-2.5zm5.2-.9h3.8c1.4 0 2.8.3 2.8 2 0 .9-.4 1.4-1.2 1.8 1 .2 1.6.9 1.6 2 0 1.4-1 2.4-2.5 2.4h-4.5v-8.2zm5.2 2.3c0-.7-.4-1.1-1.6-1.1h-2.4v2.2h2.4c1.2 0 1.6-.4 1.6-1.1zm-3.9 4.8h2.9c.9 0 1.4-.6 1.4-1.4 0-.8-.5-1.2-1.6-1.2h-2.7v2.6zm36.9 1.2v-6.5l-2.4 6.5H166l-2.4-6.5v6.5H162v-8.3h2l2.5 6.7 2.5-6.7h2v8.3h-1.4zm10.7 0c-.3.1-.6.2-.9.2-.8 0-1.2-.4-1.2-1.2-.8.9-1.7 1.3-3 1.3-1.6 0-2.6-.9-2.6-2.3 0-1.5 1-2.3 2.9-2.6 2-.2 2.6-.2 2.6-1.3 0-.9-.7-1.4-1.9-1.4-1.3 0-1.9.5-2 1.7h-1.3c0-1.8 1.3-2.8 3.5-2.8 1.1 0 2 .3 2.6.8.6.6.6 1.4.6 2.1 0 1.2-.1 2.4-.1 3.7 0 .6.1.8.6.8h.3v1zm-4-3.8c-1 .1-2.3.2-2.3 1.6 0 .8.6 1.4 1.6 1.4 1.3 0 2.5-.9 2.5-1.9v-1.5c-.5.3-1.2.3-1.8.4zm6.6-3.3c.6-1 1.6-1.4 2.8-1.4 2.3 0 3.8 1.7 3.8 4.3 0 2.7-1.4 4.4-3.7 4.4-1.2 0-2.1-.4-2.8-1.4v4.3h-1.4v-11.4h1.3v1.2zm0 2.9c0 2 1 3.2 2.6 3.2s2.5-1.2 2.5-3.2-1-3.2-2.6-3.2-2.5 1.2-2.5 3.2zm36.7 4.2v-6.5l-2.4 6.5H216l-2.4-6.5v6.5H212v-8.3h2l2.5 6.7 2.5-6.7h2v8.3h-1.4zm10.7 0c-.3.1-.6.2-.9.2-.8 0-1.2-.4-1.2-1.2-.8.9-1.7 1.3-3 1.3-1.6 0-2.6-.9-2.6-2.3 0-1.5 1-2.3 2.9-2.6 2-.2 2.6-.2 2.6-1.3 0-.9-.7-1.4-1.9-1.4-1.3 0-1.9.5-2 1.7h-1.3c0-1.8 1.3-2.8 3.5-2.8 1.1 0 2 .3 2.6.8.6.6.6 1.4.6 2.1 0 1.2-.1 2.4-.1 3.7 0 .6.1.8.6.8h.3v1zm-4-3.8c-1 .1-2.3.2-2.3 1.6 0 .8.6 1.4 1.6 1.4 1.3 0 2.5-.9 2.5-1.9v-1.5c-.5.3-1.2.3-1.8.4zm5.3 3.8v-8.3h1.4v6.7l3.7-6.7h1.7v8.3H237v-6.7l-3.7 6.7h-1.7zm3.4-9.2c-1.3 0-2.3-.9-2.4-2.2h.8c.2.8.8 1.2 1.6 1.2s1.3-.5 1.6-1.2h.8c-.2 1.3-1 2.2-2.4 2.2zm27 9.2v-8.3h1.4v6.7l3.7-6.7h1.7v8.3h-1.4v-6.7l-3.7 6.7H262zm19.6-4.2c0 2.8-1.4 4.4-3.8 4.4-2.3 0-3.8-1.5-3.9-4h-1.6v3.8h-1.4v-8.3h1.4v3.3h1.7c.3-2.2 1.7-3.5 3.8-3.5 2.4 0 3.8 1.6 3.8 4.3zm-6.3.1c0 2 .9 3.2 2.5 3.2 1.5 0 2.4-1.2 2.4-3.2s-.9-3.2-2.4-3.2c-1.6-.1-2.5 1.2-2.5 3.2zm7.9 4.1v-8.3h1.4v3.3h4.1v-3.3h1.4v8.3h-1.4v-3.8h-4.1v3.8h-1.4zm13.2 0H292v-8.3h1.4v3.2h2.9c1.6 0 2.7 1 2.7 2.5 0 1.6-1 2.6-2.6 2.6zm-3-3.9v2.7h2.5c1.1 0 1.7-.5 1.7-1.4s-.6-1.4-1.7-1.4h-2.5zM312 270v-8.3h1.4v6.7l3.7-6.7h1.7v8.3h-1.4v-6.7l-3.7 6.7H312zm19.6-4.2c0 2.8-1.4 4.4-3.8 4.4-2.3 0-3.8-1.5-3.9-4h-1.6v3.8h-1.4v-8.3h1.4v3.3h1.7c.3-2.2 1.7-3.5 3.8-3.5 2.4 0 3.8 1.6 3.8 4.3zm-6.3.1c0 2 .9 3.2 2.5 3.2 1.5 0 2.4-1.2 2.4-3.2s-.9-3.2-2.4-3.2c-1.6-.1-2.5 1.2-2.5 3.2zm14.2 4.1h-1.4v-7.1h-2.9l-.1 3.6c-.1 2.7-1.1 3.6-2.3 3.6-.4 0-.8-.1-1-.2v-1.1c.2.1.5.1.7.1.5 0 1.2-.5 1.2-2.3l.1-5h5.6v8.4zm6.4 0h-4.4v-8.3h1.4v3.2h2.9c1.6 0 2.7 1 2.7 2.5 0 1.6-1 2.6-2.6 2.6zm-3-3.9v2.7h2.5c1.1 0 1.7-.5 1.7-1.4s-.6-1.4-1.7-1.4h-2.5zm28.4 3.9c-.3.1-.6.2-.9.2-.8 0-1.2-.4-1.2-1.2-.8.9-1.7 1.3-3 1.3-1.6 0-2.6-.9-2.6-2.3 0-1.5 1-2.3 2.9-2.6 2-.2 2.6-.2 2.6-1.3 0-.9-.7-1.4-1.9-1.4-1.3 0-1.9.5-2 1.7h-1.3c0-1.8 1.3-2.8 3.5-2.8 1.1 0 2 .3 2.6.8.6.6.6 1.4.6 2.1 0 1.2-.1 2.4-.1 3.7 0 .6.1.8.6.8h.3v1zm-4-3.8c-1 .1-2.3.2-2.3 1.6 0 .8.6 1.4 1.6 1.4 1.3 0 2.5-.9 2.5-1.9v-1.5c-.5.3-1.2.3-1.8.4zm5.3-4.5h3.8c1.4 0 2.8.3 2.8 2 0 .9-.4 1.4-1.2 1.8 1 .2 1.6.9 1.6 2 0 1.4-1 2.4-2.5 2.4h-4.5v-8.2zm5.2 2.3c0-.7-.4-1.1-1.6-1.1h-2.4v2.2h2.4c1.2 0 1.6-.4 1.6-1.1zm-3.9 4.8h2.9c.9 0 1.4-.6 1.4-1.4 0-.8-.5-1.2-1.6-1.2h-2.7v2.6zm8.7-5.9v7.1h-1.4v-8.3h5.7v1.2h-4.3zm33.9 7.3c-2.6 0-3.9-1.7-3.9-4.3 0-2.8 1.5-4.5 4-4.5 2 0 3.3 1.1 3.5 2.9h-1.4c-.2-1.2-1-1.8-2.1-1.8-1.6 0-2.6 1.2-2.6 3.2s.9 3.2 2.5 3.2c1.2 0 2-.8 2.3-2.1h1.4c-.3 2.2-1.6 3.4-3.7 3.4zm8.6.1c-2.4 0-3.9-1.6-3.9-4.3 0-2.7 1.6-4.5 3.8-4.5 2.7 0 3.7 2.2 3.7 4.5v.2h-6.2v.1c0 1.8 1 2.8 2.6 2.8 1.2 0 1.8-.5 2.2-1.8h1.3c-.3 2-1.6 3-3.5 3zm-.1-7.7c-1.3 0-2.3 1-2.4 2.5h4.8c-.2-1.5-1-2.5-2.4-2.5zm5.2 7.4v-8.3h1.4v3.3h4.1v-3.3h1.4v8.3h-1.4v-3.8h-4.1v3.8h-1.4zm39.4-3.2c0 2.8-1.5 4.4-4 4.4s-4-1.6-4-4.4 1.6-4.4 4-4.4c2.5.1 4 1.7 4 4.4zm-6.6.1c0 2 1 3.2 2.6 3.2s2.6-1.2 2.6-3.2-1-3.2-2.6-3.2-2.6 1.2-2.6 3.2zm13.9 4.1l-3-4.1-1.3 1.3v2.8h-1.4v-8.3h1.4v3.9l3.8-3.9h1.8l-3.3 3.2 3.8 5h-1.8zm6-7.1v7.1h-1.4v-7.1h-3v-1.2h7.3v1.2h-2.9zM513 270v-8.3h1.4v3.3h4.1v-3.3h1.4v8.3h-1.4v-3.8h-4.1v3.8H513zm16.5-4.2c0 2.8-1.5 4.4-4 4.4s-4-1.6-4-4.4 1.6-4.4 4-4.4 4 1.7 4 4.4zm-6.6.1c0 2 1 3.2 2.6 3.2s2.6-1.2 2.6-3.2-1-3.2-2.6-3.2-2.6 1.2-2.6 3.2zm13.4 4.1v-3.4h-1.8l-2.6 3.4H530l2.8-3.4c-1.2-.2-2-1-2-2.4 0-1.6 1-2.4 2.6-2.4h4.2v8.3h-1.3zm-2.4-7.1c-1.1 0-1.6.4-1.6 1.2 0 .8.5 1.2 1.6 1.2h2.4v-2.5h-2.4zm36.8 9.7V270h-6.3v2.6h-1.3v-3.8h.9c.5-.9 1-3.2 1-5.3v-1.8h5.9v7.1h1.1v3.8h-1.3zm-1.1-9.7h-3.2v.7c0 2.1-.5 4.3-1 5.2h4.2v-5.9zm7.1 7.4c-2.4 0-3.9-1.6-3.9-4.3 0-2.7 1.6-4.5 3.8-4.5 2.7 0 3.7 2.2 3.7 4.5v.2h-6.2v.1c0 1.8 1 2.8 2.6 2.8 1.2 0 1.8-.5 2.2-1.8h1.3c-.3 2-1.6 3-3.5 3zm-.1-7.7c-1.3 0-2.3 1-2.4 2.5h4.8c-.2-1.5-1.1-2.5-2.4-2.5zm10.9 7.4l-3-4.1-1.3 1.3v2.8h-1.4v-8.3h1.4v3.9l3.8-3.9h1.8l-3.3 3.2 3.8 5h-1.8zM17.7 160h-1.5v-8.2h-2.8v-1c1.7 0 2.9-.4 3.3-2.1h1.1V160zm11.4-5.4c0 2.7-.5 5.6-3.7 5.6-3.4 0-3.8-2.9-3.8-5.7s.3-5.9 3.8-5.9c3.5.1 3.7 3.3 3.7 6zm-6.1 0c0 1.7 0 4.4 2.4 4.4s2.3-2.9 2.3-4.5c0-1.7 0-4.6-2.3-4.6-2.5 0-2.4 2.9-2.4 4.7zm15 0c0 2.7-.5 5.6-3.7 5.6-3.4 0-3.8-2.9-3.8-5.7s.3-5.9 3.8-5.9c3.5.1 3.7 3.3 3.7 6zm-6.1 0c0 1.7 0 4.4 2.4 4.4s2.3-2.9 2.3-4.5c0-1.7 0-4.6-2.3-4.6-2.5 0-2.4 2.9-2.4 4.7zm15 0c0 2.7-.5 5.6-3.7 5.6-3.4 0-3.8-2.9-3.8-5.7s.3-5.9 3.8-5.9c3.5.1 3.7 3.3 3.7 6zm-6.1 0c0 1.7 0 4.4 2.4 4.4s2.3-2.9 2.3-4.5c0-1.7 0-4.6-2.3-4.6-2.5 0-2.4 2.9-2.4 4.7zm-12.3 47.5h-4.6l-.7 3.4c.6-.7 1.4-.9 2.3-.9 2.1 0 3.6 1.5 3.6 3.7 0 2.3-1.6 4-3.9 4-2.2 0-3.6-1.3-3.7-3.3h1.4c.1 1.3 1 2.1 2.3 2.1 1.4 0 2.5-1.2 2.5-2.7 0-1.6-1-2.7-2.5-2.7-.9 0-1.7.4-2.2 1.1l-1.2-.1 1.1-5.9h5.6v1.3zm9.6 4.5c0 2.7-.5 5.6-3.7 5.6-3.4 0-3.8-2.9-3.8-5.7s.3-5.9 3.8-5.9c3.5.1 3.7 3.3 3.7 6zm-6.1 0c0 1.7 0 4.4 2.4 4.4s2.3-2.9 2.3-4.5c0-1.7 0-4.6-2.3-4.6-2.5 0-2.4 2.9-2.4 4.7zm15 0c0 2.7-.5 5.6-3.7 5.6-3.4 0-3.8-2.9-3.8-5.7s.3-5.9 3.8-5.9c3.5.1 3.7 3.3 3.7 6zm-6.1 0c0 1.7 0 4.4 2.4 4.4s2.3-2.9 2.3-4.5c0-1.7 0-4.6-2.3-4.6-2.5 0-2.4 2.9-2.4 4.7zM17.7 111h-1.5v-8.2h-2.8v-1c1.7 0 2.9-.4 3.3-2.1h1.1V111zm10.7-9.9h-4.6l-.7 3.4c.6-.7 1.4-.9 2.3-.9 2.1 0 3.6 1.5 3.6 3.7 0 2.3-1.6 4-3.9 4-2.2 0-3.6-1.3-3.7-3.3h1.4c.1 1.3 1 2.1 2.3 2.1 1.4 0 2.5-1.2 2.5-2.7 0-1.6-1-2.7-2.5-2.7-.9 0-1.7.4-2.2 1.1l-1.2-.1 1.1-5.9h5.6v1.3zm9.6 4.5c0 2.7-.5 5.6-3.7 5.6-3.4 0-3.8-2.9-3.8-5.7s.3-5.9 3.8-5.9c3.5.1 3.7 3.3 3.7 6zm-6.1 0c0 1.7 0 4.4 2.4 4.4s2.3-2.9 2.3-4.5c0-1.7 0-4.6-2.3-4.6-2.5 0-2.4 2.9-2.4 4.7zm15 0c0 2.7-.5 5.6-3.7 5.6-3.4 0-3.8-2.9-3.8-5.7s.3-5.9 3.8-5.9c3.5.1 3.7 3.3 3.7 6zm-6.1 0c0 1.7 0 4.4 2.4 4.4s2.3-2.9 2.3-4.5c0-1.7 0-4.6-2.3-4.6-2.5 0-2.4 2.9-2.4 4.7zM19.8 61h-7.4c.1-2.6 1.4-3.5 3.4-4.8 1.2-.8 2.7-1.6 2.7-3.2 0-1.3-.9-2.1-2.2-2.1-1.7 0-2.2 1.4-2.2 2.8h-1.4v-.3c0-2.2 1.5-3.7 3.6-3.7s3.5 1.3 3.5 3.3c0 2.2-1.7 3.3-3.4 4.3-1 .6-2.2 1.3-2.5 2.5h5.8V61zm9.3-5.4c0 2.7-.5 5.6-3.7 5.6-3.4 0-3.8-2.9-3.8-5.7s.3-5.9 3.8-5.9c3.5.1 3.7 3.3 3.7 6zm-6.1 0c0 1.7 0 4.4 2.4 4.4s2.3-2.9 2.3-4.5c0-1.7 0-4.6-2.3-4.6-2.5 0-2.4 2.9-2.4 4.7zm15 0c0 2.7-.5 5.6-3.7 5.6-3.4 0-3.8-2.9-3.8-5.7s.3-5.9 3.8-5.9c3.5.1 3.7 3.3 3.7 6zm-6.1 0c0 1.7 0 4.4 2.4 4.4s2.3-2.9 2.3-4.5c0-1.7 0-4.6-2.3-4.6-2.5 0-2.4 2.9-2.4 4.7zm15 0c0 2.7-.5 5.6-3.7 5.6-3.4 0-3.8-2.9-3.8-5.7s.3-5.9 3.8-5.9c3.5.1 3.7 3.3 3.7 6zm-6.1 0c0 1.7 0 4.4 2.4 4.4s2.3-2.9 2.3-4.5c0-1.7 0-4.6-2.3-4.6-2.5 0-2.4 2.9-2.4 4.7z"/><path d="M61 149h49v4H61zm49-26h51v4h-51zm51 37h50v4h-50zm50 52h50v4h-50zm50-38h50v4h-50zm50-41h51v4h-51zm51-15h50v4h-50zm99-48h50v4h-50zm101 11h51v4h-51zm-51 10h51v4h-51zm-99 2h49v4h-49z" fill="#e70058"/><path d="M68.7 30h-1.1v-7.6h-4.5V30H62v-8.5h6.8V30zm7.4-3.1c0 2.1-1.1 3.3-3 3.3s-3-1.2-3-3.3 1.2-3.3 3-3.3 3 1.2 3 3.3zm-4.9 0c0 1.5.7 2.4 2 2.4 1.2 0 1.9-.9 1.9-2.4s-.7-2.4-1.9-2.4-2 .9-2 2.4zm8.7 3.3C78 30.2 77 28.9 77 27c0-2.1 1.2-3.4 3-3.4 1.5 0 2.5.8 2.6 2.2h-1.1c-.2-.9-.7-1.3-1.6-1.3-1.2 0-1.9.9-1.9 2.4s.7 2.4 1.8 2.4c.9 0 1.5-.6 1.7-1.6h1c0 1.5-1 2.5-2.6 2.5zm6.5 0c-1.8 0-2.9-1.2-2.9-3.2s1.2-3.4 2.9-3.4c2 0 2.8 1.6 2.8 3.4v.1h-4.7v.1c0 1.3.7 2.1 1.9 2.1.9 0 1.4-.4 1.7-1.3h1c-.4 1.5-1.3 2.2-2.7 2.2zm-.1-5.7c-1 0-1.7.7-1.8 1.9h3.6c-.1-1.2-.8-1.9-1.8-1.9zm6.2.2V30h-1v-5.3h-2.2v-.9h5.5v.9h-2.3zm3 5.3v-6.2h1v5l2.8-5h1.3V30h-1v-5l-2.8 5h-1.3zm9.2-5.3V30h-1v-5.3h-2.2v-.9h5.5v.9h-2.3zm5.4 5.5c-1.8 0-2.9-1.2-2.9-3.2s1.2-3.4 2.9-3.4c2 0 2.8 1.6 2.8 3.4v.1h-4.7v.1c0 1.3.7 2.1 1.9 2.1.9 0 1.4-.4 1.7-1.3h1c-.3 1.5-1.2 2.2-2.7 2.2zm0-5.7c-1 0-1.7.7-1.8 1.9h3.6c-.1-1.2-.8-1.9-1.8-1.9zm8.8 5.5h-1v-5.3h-2.2l-.1 2.7c-.1 2-.9 2.7-1.7 2.7-.3 0-.6-.1-.7-.1v-.8c.1.1.4.1.5.1.4 0 .9-.4.9-1.7l.1-3.7h4.2V30zm4.1.2c-1.8 0-2.9-1.2-2.9-3.2s1.2-3.4 2.9-3.4c2 0 2.8 1.6 2.8 3.4v.1h-4.7v.1c0 1.3.7 2.1 1.9 2.1.9 0 1.4-.4 1.7-1.3h1c-.3 1.5-1.2 2.2-2.7 2.2zm0-5.7c-1 0-1.7.7-1.8 1.9h3.6c-.1-1.2-.8-1.9-1.8-1.9zm3.9 5.5v-6.2h1v5l2.8-5h1.3V30h-1v-5l-2.8 5h-1.3zm2.6-6.9c-1 0-1.7-.7-1.8-1.7h.6c.2.6.6.9 1.2.9s1-.4 1.2-.9h.6c-.2 1-.8 1.7-1.8 1.7zM61.8 44.4v-6.2h1v2.5h3.1v-2.5h1v6.2h-1v-2.8h-3.1v2.8h-1zm12.1 0c-.2.1-.5.1-.7.1-.6 0-.9-.3-.9-.9-.6.7-1.3 1-2.2 1-1.2 0-2-.7-2-1.8s.7-1.8 2.2-1.9c1.5-.2 2-.1 2-1 0-.7-.5-1-1.4-1-.9 0-1.4.3-1.5 1.3h-1c0-1.3 1-2.1 2.6-2.1.8 0 1.5.2 1.9.6.4.4.4 1.1.4 1.6v2.8c0 .5.1.6.4.6h.3v.7zm-3-2.8c-.7.1-1.8.2-1.8 1.2 0 .6.5 1 1.2 1 1 0 1.9-.7 1.9-1.5v-1.1c-.3.3-.8.3-1.3.4zm9.9 3c-1.9 0-2.9-1.3-2.9-3.2 0-2.1 1.2-3.4 3-3.4 1.5 0 2.5.8 2.6 2.2h-1.1c-.2-.9-.7-1.3-1.6-1.3-1.2 0-1.9.9-1.9 2.4s.7 2.4 1.8 2.4c.9 0 1.5-.6 1.7-1.6h1c0 1.5-1 2.5-2.6 2.5zm9.3-.2c-.2.1-.5.1-.7.1-.6 0-.9-.3-.9-.9-.6.7-1.3 1-2.2 1-1.2 0-2-.7-2-1.8s.7-1.8 2.2-1.9c1.5-.2 2-.1 2-1 0-.7-.5-1-1.4-1-.9 0-1.4.3-1.5 1.3h-1c0-1.3 1-2.1 2.6-2.1.8 0 1.5.2 1.9.6.4.4.4 1.1.4 1.6v2.8c0 .5.1.6.4.6h.3v.7zm-3-2.8c-.7.1-1.8.2-1.8 1.2 0 .6.5 1 1.2 1 1 0 1.9-.7 1.9-1.5v-1.1c-.3.3-.8.3-1.3.4zm4 2.8v-6.2h1v5l2.8-5h1.3v6.2h-1v-5l-2.8 5h-1.3zm2.6-6.9c-1 0-1.7-.7-1.8-1.7h.6c.2.6.6.9 1.2.9s1-.4 1.2-.9h.6c-.2 1-.8 1.7-1.8 1.7zm6.6 1.6v5.3h-1v-5.3h-2.2v-.9h5.5v.9h-2.3zm5.4 5.5c-1.8 0-2.9-1.2-2.9-3.2s1.2-3.4 2.9-3.4c2 0 2.8 1.6 2.8 3.4v.1h-4.7v.1c0 1.3.7 2.1 1.9 2.1.9 0 1.4-.4 1.7-1.3h1c-.3 1.5-1.2 2.2-2.7 2.2zm-.1-5.7c-1 0-1.7.7-1.8 1.9h3.6c-.1-1.2-.7-1.9-1.8-1.9zm4.9 88.1v122m51-84v84m100-71v71.5m50-112.5v112.5M412.5 97v152.5m49-175.5v175.5m50-154.5v154.5m51-164.5v164.5"/></svg>