<?xml version="1.0" encoding="utf-8"?>
<!-- Generator: Adobe Illustrator 21.1.0, SVG Export Plug-In . SVG Version: 6.00 Build 0)  -->
<svg version="1.1" id="Слой_1" xmlns="http://www.w3.org/2000/svg" xmlns:xlink="http://www.w3.org/1999/xlink" x="0px" y="0px"
	 viewBox="0 0 642 302" style="enable-background:new 0 0 642 302;" xml:space="preserve">
<style type="text/css">
	.st0{fill:none;stroke:#CDCDCD;stroke-miterlimit:10;}
	.st1{fill:#E70058;}
</style>
<line class="st0" x1="362.5" y1="121.5" x2="362.5" y2="249.5"/>
<line class="st0" x1="211.5" y1="215.5" x2="211.5" y2="249.5"/>
<g>
	<line class="st0" x1="60.5" y1="49.5" x2="60.5" y2="249.5"/>
</g>
<line class="st0" x1="60.5" y1="249.5" x2="614.5" y2="249.5"/>
<line class="st0" x1="55.5" y1="200.5" x2="60.5" y2="200.5"/>
<line class="st0" x1="55" y1="148.5" x2="60" y2="148.5"/>
<line class="st0" x1="55" y1="99.5" x2="60" y2="99.5"/>
<line class="st0" x1="55" y1="49.5" x2="60.5" y2="49.5"/>
<g>
	<path d="M67.2,270v-3.4h-1.8l-2.6,3.4H61l2.8-3.4c-1.2-0.2-2-1-2-2.4c0-1.6,1-2.4,2.6-2.4h4.2v8.3H67.2z M64.8,262.9
		c-1.1,0-1.6,0.4-1.6,1.2c0,0.8,0.5,1.2,1.6,1.2h2.4v-2.5H64.8z"/>
	<path d="M70.6,270v-8.3H72v3.3h4.1v-3.3h1.4v8.3h-1.4v-3.8H72v3.8H70.6z"/>
	<path d="M79.5,261.7h3.8c1.4,0,2.8,0.3,2.8,2c0,0.9-0.4,1.4-1.2,1.8v0c1,0.2,1.6,0.9,1.6,2c0,1.4-1,2.4-2.5,2.4h-4.5V261.7z
		 M84.7,264c0-0.7-0.4-1.1-1.6-1.1h-2.4v2.2h2.4C84.3,265.1,84.7,264.7,84.7,264z M80.8,268.8h2.9c0.9,0,1.4-0.6,1.4-1.4
		c0-0.8-0.5-1.2-1.6-1.2h-2.7V268.8z"/>
</g>
<g>
	<path d="M117.8,270.2c-0.6,0-1.4-0.4-1.7-0.8h0v3.8h-1.3v-3.8h0c-0.3,0.4-1.1,0.8-1.7,0.8c-2.5,0-3.3-2.1-3.3-4.4
		c0-2.6,1.2-4.2,3.2-4.2c0.7,0,1.5,0.5,1.8,0.9h0v-3.8h1.3v3.8h0c0.3-0.4,1.1-0.9,1.8-0.9c2,0,3.2,1.6,3.2,4.2
		C121.2,268,120.3,270.2,117.8,270.2z M114.7,263.8c-0.3-0.9-1.1-1.2-1.7-1.2c-1.4,0-2,1.3-2,3.1c0,1.5,0.4,3.3,2.1,3.3
		c0.8,0,1.5-0.5,1.6-1.1V263.8z M117.8,262.7c-0.6,0-1.4,0.3-1.7,1.2v4.2c0.1,0.6,0.8,1.1,1.6,1.1c1.6,0,2.1-1.8,2.1-3.3
		C119.8,264,119.2,262.7,117.8,262.7z"/>
	<path d="M126.3,270.3c-2.4,0-3.9-1.6-3.9-4.3c0-2.7,1.6-4.5,3.8-4.5c2.7,0,3.7,2.2,3.7,4.5v0.2h-6.2l0,0.1c0,1.8,1,2.8,2.6,2.8
		c1.2,0,1.8-0.5,2.2-1.8h1.3C129.5,269.3,128.2,270.3,126.3,270.3z M126.2,262.6c-1.3,0-2.3,1-2.4,2.5h4.8
		C128.4,263.6,127.6,262.6,126.2,262.6z"/>
	<path d="M131.4,261.7h3.8c1.4,0,2.8,0.3,2.8,2c0,0.9-0.4,1.4-1.2,1.8v0c1,0.2,1.6,0.9,1.6,2c0,1.4-1,2.4-2.5,2.4h-4.5V261.7z
		 M136.6,264c0-0.7-0.4-1.1-1.6-1.1h-2.4v2.2h2.4C136.2,265.1,136.6,264.7,136.6,264z M132.7,268.8h2.9c0.9,0,1.4-0.6,1.4-1.4
		c0-0.8-0.5-1.2-1.6-1.2h-2.7V268.8z"/>
</g>
<g>
	<path d="M169.6,270v-6.5h0l-2.4,6.5h-1.2l-2.4-6.5h0v6.5H162v-8.3h2l2.5,6.7h0l2.5-6.7h2v8.3H169.6z"/>
	<path d="M180.3,270c-0.3,0.1-0.6,0.2-0.9,0.2c-0.8,0-1.2-0.4-1.2-1.2c-0.8,0.9-1.7,1.3-3,1.3c-1.6,0-2.6-0.9-2.6-2.3
		c0-1.5,1-2.3,2.9-2.6c2-0.2,2.6-0.2,2.6-1.3c0-0.9-0.7-1.4-1.9-1.4c-1.3,0-1.9,0.5-2,1.7h-1.3c0-1.8,1.3-2.8,3.5-2.8
		c1.1,0,2,0.3,2.6,0.8c0.6,0.6,0.6,1.4,0.6,2.1c0,1.2-0.1,2.4-0.1,3.7c0,0.6,0.1,0.8,0.6,0.8c0.1,0,0.2,0,0.3,0V270z M176.3,266.2
		c-1,0.1-2.3,0.2-2.3,1.6c0,0.8,0.6,1.4,1.6,1.4c1.3,0,2.5-0.9,2.5-1.9v-1.5C177.6,266.1,176.9,266.1,176.3,266.2z"/>
	<path d="M182.9,262.9c0.6-1,1.6-1.4,2.8-1.4c2.3,0,3.8,1.7,3.8,4.3c0,2.7-1.4,4.4-3.7,4.4c-1.2,0-2.1-0.4-2.8-1.4v4.3h-1.4v-11.4
		h1.3V262.9z M182.9,265.8c0,2,1,3.2,2.6,3.2c1.6,0,2.5-1.2,2.5-3.2c0-2-1-3.2-2.6-3.2C183.8,262.6,182.9,263.8,182.9,265.8z"/>
</g>
<g>
	<path d="M219.6,270v-6.5h0l-2.4,6.5h-1.2l-2.4-6.5h0v6.5H212v-8.3h2l2.5,6.7h0l2.5-6.7h2v8.3H219.6z"/>
	<path d="M230.3,270c-0.3,0.1-0.6,0.2-0.9,0.2c-0.8,0-1.2-0.4-1.2-1.2c-0.8,0.9-1.7,1.3-3,1.3c-1.6,0-2.6-0.9-2.6-2.3
		c0-1.5,1-2.3,2.9-2.6c2-0.2,2.6-0.2,2.6-1.3c0-0.9-0.7-1.4-1.9-1.4c-1.3,0-1.9,0.5-2,1.7h-1.3c0-1.8,1.3-2.8,3.5-2.8
		c1.1,0,2,0.3,2.6,0.8c0.6,0.6,0.6,1.4,0.6,2.1c0,1.2-0.1,2.4-0.1,3.7c0,0.6,0.1,0.8,0.6,0.8c0.1,0,0.2,0,0.3,0V270z M226.3,266.2
		c-1,0.1-2.3,0.2-2.3,1.6c0,0.8,0.6,1.4,1.6,1.4c1.3,0,2.5-0.9,2.5-1.9v-1.5C227.6,266.1,226.9,266.1,226.3,266.2z"/>
	<path d="M231.6,270v-8.3h1.4v6.7h0l3.7-6.7h1.7v8.3h-1.4v-6.7h0l-3.7,6.7H231.6z M235,260.8c-1.3,0-2.3-0.9-2.4-2.2h0.8
		c0.2,0.8,0.8,1.2,1.6,1.2c0.8,0,1.3-0.5,1.6-1.2h0.8C237.2,259.9,236.4,260.8,235,260.8z"/>
</g>
<g>
	<path d="M262,270v-8.3h1.4v6.7h0l3.7-6.7h1.7v8.3h-1.4v-6.7h0l-3.7,6.7H262z"/>
	<path d="M281.6,265.8c0,2.8-1.4,4.4-3.8,4.4c-2.3,0-3.8-1.5-3.9-4h-1.6v3.8h-1.4v-8.3h1.4v3.3h1.7c0.3-2.2,1.7-3.5,3.8-3.5
		C280.2,261.5,281.6,263.1,281.6,265.8z M275.3,265.9c0,2,0.9,3.2,2.5,3.2c1.5,0,2.4-1.2,2.4-3.2c0-2-0.9-3.2-2.4-3.2
		C276.2,262.6,275.3,263.9,275.3,265.9z"/>
	<path d="M283.2,270v-8.3h1.4v3.3h4.1v-3.3h1.4v8.3h-1.4v-3.8h-4.1v3.8H283.2z"/>
	<path d="M296.4,270H292v-8.3h1.4v3.2h2.9c1.6,0,2.7,1,2.7,2.5C299,269,298,270,296.4,270z M293.4,266.1v2.7h2.5
		c1.1,0,1.7-0.5,1.7-1.4s-0.6-1.4-1.7-1.4H293.4z"/>
</g>
<g>
	<path d="M312,270v-8.3h1.4v6.7h0l3.7-6.7h1.7v8.3h-1.4v-6.7h0l-3.7,6.7H312z"/>
	<path d="M331.6,265.8c0,2.8-1.4,4.4-3.8,4.4c-2.3,0-3.8-1.5-3.9-4h-1.6v3.8h-1.4v-8.3h1.4v3.3h1.7c0.3-2.2,1.7-3.5,3.8-3.5
		C330.2,261.5,331.6,263.1,331.6,265.8z M325.3,265.9c0,2,0.9,3.2,2.5,3.2c1.5,0,2.4-1.2,2.4-3.2c0-2-0.9-3.2-2.4-3.2
		C326.2,262.6,325.3,263.9,325.3,265.9z"/>
	<path d="M339.5,270h-1.4v-7.1h-2.9l-0.1,3.6c-0.1,2.7-1.1,3.6-2.3,3.6c-0.4,0-0.8-0.1-1-0.2v-1.1c0.2,0.1,0.5,0.1,0.7,0.1
		c0.5,0,1.2-0.5,1.2-2.3l0.1-5h5.6V270z"/>
	<path d="M345.9,270h-4.4v-8.3h1.4v3.2h2.9c1.6,0,2.7,1,2.7,2.5C348.5,269,347.5,270,345.9,270z M342.9,266.1v2.7h2.5
		c1.1,0,1.7-0.5,1.7-1.4s-0.6-1.4-1.7-1.4H342.9z"/>
</g>
<g>
	<path d="M371.3,270c-0.3,0.1-0.6,0.2-0.9,0.2c-0.8,0-1.2-0.4-1.2-1.2c-0.8,0.9-1.7,1.3-3,1.3c-1.6,0-2.6-0.9-2.6-2.3
		c0-1.5,1-2.3,2.9-2.6c2-0.2,2.6-0.2,2.6-1.3c0-0.9-0.7-1.4-1.9-1.4c-1.3,0-1.9,0.5-2,1.7h-1.3c0-1.8,1.3-2.8,3.5-2.8
		c1.1,0,2,0.3,2.6,0.8c0.6,0.6,0.6,1.4,0.6,2.1c0,1.2-0.1,2.4-0.1,3.7c0,0.6,0.1,0.8,0.6,0.8c0.1,0,0.2,0,0.3,0V270z M367.3,266.2
		c-1,0.1-2.3,0.2-2.3,1.6c0,0.8,0.6,1.4,1.6,1.4c1.3,0,2.5-0.9,2.5-1.9v-1.5C368.6,266.1,367.9,266.1,367.3,266.2z"/>
	<path d="M372.6,261.7h3.8c1.4,0,2.8,0.3,2.8,2c0,0.9-0.4,1.4-1.2,1.8v0c1,0.2,1.6,0.9,1.6,2c0,1.4-1,2.4-2.5,2.4h-4.5V261.7z
		 M377.8,264c0-0.7-0.4-1.1-1.6-1.1h-2.4v2.2h2.4C377.4,265.1,377.8,264.7,377.8,264z M373.9,268.8h2.9c0.9,0,1.4-0.6,1.4-1.4
		c0-0.8-0.5-1.2-1.6-1.2h-2.7V268.8z"/>
	<path d="M382.6,262.9v7.1h-1.4v-8.3h5.7v1.2H382.6z"/>
</g>
<g>
	<path d="M416.5,270.2c-2.6,0-3.9-1.7-3.9-4.3c0-2.8,1.5-4.5,4-4.5c2,0,3.3,1.1,3.5,2.9h-1.4c-0.2-1.2-1-1.8-2.1-1.8
		c-1.6,0-2.6,1.2-2.6,3.2c0,2,0.9,3.2,2.5,3.2c1.2,0,2-0.8,2.3-2.1h1.4C419.9,269,418.6,270.2,416.5,270.2z"/>
	<path d="M425.1,270.3c-2.4,0-3.9-1.6-3.9-4.3c0-2.7,1.6-4.5,3.8-4.5c2.7,0,3.7,2.2,3.7,4.5v0.2h-6.2l0,0.1c0,1.8,1,2.8,2.6,2.8
		c1.2,0,1.8-0.5,2.2-1.8h1.3C428.3,269.3,427,270.3,425.1,270.3z M425,262.6c-1.3,0-2.3,1-2.4,2.5h4.8
		C427.2,263.6,426.4,262.6,425,262.6z"/>
	<path d="M430.2,270v-8.3h1.4v3.3h4.1v-3.3h1.4v8.3h-1.4v-3.8h-4.1v3.8H430.2z"/>
</g>
<g>
	<path d="M469.6,266.8c0,2.8-1.5,4.4-4,4.4c-2.5,0-4-1.6-4-4.4s1.6-4.4,4-4.4C468.1,262.5,469.6,264.1,469.6,266.8z M463,266.9
		c0,2,1,3.2,2.6,3.2c1.6,0,2.6-1.2,2.6-3.2c0-2-1-3.2-2.6-3.2S463,264.9,463,266.9z"/>
	<path d="M476.9,271l-3-4.1l-1.3,1.3v2.8h-1.4v-8.3h1.4v3.9l3.8-3.9h1.8l-3.3,3.2l3.8,5H476.9z"/>
	<path d="M482.9,263.9v7.1h-1.4v-7.1h-3v-1.2h7.3v1.2H482.9z"/>
</g>
<g>
	<path d="M513,270v-8.3h1.4v3.3h4.1v-3.3h1.4v8.3h-1.4v-3.8h-4.1v3.8H513z"/>
	<path d="M529.5,265.8c0,2.8-1.5,4.4-4,4.4c-2.5,0-4-1.6-4-4.4s1.6-4.4,4-4.4S529.5,263.1,529.5,265.8z M522.9,265.9
		c0,2,1,3.2,2.6,3.2c1.6,0,2.6-1.2,2.6-3.2c0-2-1-3.2-2.6-3.2S522.9,263.9,522.9,265.9z"/>
	<path d="M536.3,270v-3.4h-1.8l-2.6,3.4H530l2.8-3.4c-1.2-0.2-2-1-2-2.4c0-1.6,1-2.4,2.6-2.4h4.2v8.3H536.3z M533.9,262.9
		c-1.1,0-1.6,0.4-1.6,1.2c0,0.8,0.5,1.2,1.6,1.2h2.4v-2.5H533.9z"/>
</g>
<g>
	<path d="M570.7,272.6V270h-6.3v2.6h-1.3v-3.8h0.9c0.5-0.9,1-3.2,1-5.3v-1.8h5.9v7.1h1.1v3.8H570.7z M569.6,262.9h-3.2v0.7
		c0,2.1-0.5,4.3-1,5.2h4.2V262.9z"/>
	<path d="M576.7,270.3c-2.4,0-3.9-1.6-3.9-4.3c0-2.7,1.6-4.5,3.8-4.5c2.7,0,3.7,2.2,3.7,4.5v0.2h-6.2l0,0.1c0,1.8,1,2.8,2.6,2.8
		c1.2,0,1.8-0.5,2.2-1.8h1.3C579.9,269.3,578.6,270.3,576.7,270.3z M576.6,262.6c-1.3,0-2.3,1-2.4,2.5h4.8
		C578.8,263.6,577.9,262.6,576.6,262.6z"/>
	<path d="M587.5,270l-3-4.1l-1.3,1.3v2.8h-1.4v-8.3h1.4v3.9l3.8-3.9h1.8l-3.3,3.2l3.8,5H587.5z"/>
</g>
<g>
	<path d="M17.7,160h-1.5v-8.2h-2.8v-1c1.7,0,2.9-0.4,3.3-2.1h1.1V160z"/>
	<path d="M29.1,154.6c0,2.7-0.5,5.6-3.7,5.6c-3.4,0-3.8-2.9-3.8-5.7s0.3-5.9,3.8-5.9C28.9,148.7,29.1,151.9,29.1,154.6z M23,154.6
		c0,1.7,0,4.4,2.4,4.4s2.3-2.9,2.3-4.5c0-1.7,0-4.6-2.3-4.6C22.9,149.9,23,152.8,23,154.6z"/>
	<path d="M38,154.6c0,2.7-0.5,5.6-3.7,5.6c-3.4,0-3.8-2.9-3.8-5.7s0.3-5.9,3.8-5.9C37.8,148.7,38,151.9,38,154.6z M31.9,154.6
		c0,1.7,0,4.4,2.4,4.4s2.3-2.9,2.3-4.5c0-1.7,0-4.6-2.3-4.6C31.8,149.9,31.9,152.8,31.9,154.6z"/>
	<path d="M46.9,154.6c0,2.7-0.5,5.6-3.7,5.6c-3.4,0-3.8-2.9-3.8-5.7s0.3-5.9,3.8-5.9C46.7,148.7,46.9,151.9,46.9,154.6z M40.8,154.6
		c0,1.7,0,4.4,2.4,4.4s2.3-2.9,2.3-4.5c0-1.7,0-4.6-2.3-4.6C40.7,149.9,40.8,152.8,40.8,154.6z"/>
</g>
<g>
	<path d="M28.5,202.1h-4.6l-0.7,3.4c0.6-0.7,1.4-0.9,2.3-0.9c2.1,0,3.6,1.5,3.6,3.7c0,2.3-1.6,4-3.9,4c-2.2,0-3.6-1.3-3.7-3.3h1.4
		c0.1,1.3,1,2.1,2.3,2.1c1.4,0,2.5-1.2,2.5-2.7c0-1.6-1-2.7-2.5-2.7c-0.9,0-1.7,0.4-2.2,1.1l-1.2-0.1l1.1-5.9h5.6V202.1z"/>
	<path d="M38.1,206.6c0,2.7-0.5,5.6-3.7,5.6c-3.4,0-3.8-2.9-3.8-5.7s0.3-5.9,3.8-5.9C37.9,200.7,38.1,203.9,38.1,206.6z M32,206.6
		c0,1.7,0,4.4,2.4,4.4s2.3-2.9,2.3-4.5c0-1.7,0-4.6-2.3-4.6C31.9,201.9,32,204.8,32,206.6z"/>
	<path d="M47,206.6c0,2.7-0.5,5.6-3.7,5.6c-3.4,0-3.8-2.9-3.8-5.7s0.3-5.9,3.8-5.9C46.8,200.7,47,203.9,47,206.6z M40.9,206.6
		c0,1.7,0,4.4,2.4,4.4s2.3-2.9,2.3-4.5c0-1.7,0-4.6-2.3-4.6C40.8,201.9,40.9,204.8,40.9,206.6z"/>
</g>
<g>
	<path d="M17.7,111h-1.5v-8.2h-2.8v-1c1.7,0,2.9-0.4,3.3-2.1h1.1V111z"/>
	<path d="M28.4,101.1h-4.6l-0.7,3.4c0.6-0.7,1.4-0.9,2.3-0.9c2.1,0,3.6,1.5,3.6,3.7c0,2.3-1.6,4-3.9,4c-2.2,0-3.6-1.3-3.7-3.3h1.4
		c0.1,1.3,1,2.1,2.3,2.1c1.4,0,2.5-1.2,2.5-2.7c0-1.6-1-2.7-2.5-2.7c-0.9,0-1.7,0.4-2.2,1.1l-1.2-0.1l1.1-5.9h5.6V101.1z"/>
	<path d="M38,105.6c0,2.7-0.5,5.6-3.7,5.6c-3.4,0-3.8-2.9-3.8-5.7s0.3-5.9,3.8-5.9C37.8,99.7,38,102.9,38,105.6z M31.9,105.6
		c0,1.7,0,4.4,2.4,4.4s2.3-2.9,2.3-4.5c0-1.7,0-4.6-2.3-4.6C31.8,100.9,31.9,103.8,31.9,105.6z"/>
	<path d="M46.9,105.6c0,2.7-0.5,5.6-3.7,5.6c-3.4,0-3.8-2.9-3.8-5.7s0.3-5.9,3.8-5.9C46.7,99.7,46.9,102.9,46.9,105.6z M40.8,105.6
		c0,1.7,0,4.4,2.4,4.4s2.3-2.9,2.3-4.5c0-1.7,0-4.6-2.3-4.6C40.7,100.9,40.8,103.8,40.8,105.6z"/>
</g>
<g>
	<path d="M19.8,61h-7.4c0.1-2.6,1.4-3.5,3.4-4.8c1.2-0.8,2.7-1.6,2.7-3.2c0-1.3-0.9-2.1-2.2-2.1c-1.7,0-2.2,1.4-2.2,2.8h-1.4v-0.3
		c0-2.2,1.5-3.7,3.6-3.7c2.1,0,3.5,1.3,3.5,3.3c0,2.2-1.7,3.3-3.4,4.3c-1,0.6-2.2,1.3-2.5,2.5h5.8V61z"/>
	<path d="M29.1,55.6c0,2.7-0.5,5.6-3.7,5.6c-3.4,0-3.8-2.9-3.8-5.7s0.3-5.9,3.8-5.9C28.9,49.7,29.1,52.9,29.1,55.6z M23,55.6
		c0,1.7,0,4.4,2.4,4.4s2.3-2.9,2.3-4.5c0-1.7,0-4.6-2.3-4.6C22.9,50.9,23,53.8,23,55.6z"/>
	<path d="M38,55.6c0,2.7-0.5,5.6-3.7,5.6c-3.4,0-3.8-2.9-3.8-5.7s0.3-5.9,3.8-5.9C37.8,49.7,38,52.9,38,55.6z M31.9,55.6
		c0,1.7,0,4.4,2.4,4.4s2.3-2.9,2.3-4.5c0-1.7,0-4.6-2.3-4.6C31.8,50.9,31.9,53.8,31.9,55.6z"/>
	<path d="M46.9,55.6c0,2.7-0.5,5.6-3.7,5.6c-3.4,0-3.8-2.9-3.8-5.7s0.3-5.9,3.8-5.9C46.7,49.7,46.9,52.9,46.9,55.6z M40.8,55.6
		c0,1.7,0,4.4,2.4,4.4s2.3-2.9,2.3-4.5c0-1.7,0-4.6-2.3-4.6C40.7,50.9,40.8,53.8,40.8,55.6z"/>
</g>
<rect x="61" y="149" class="st1" width="49" height="4"/>
<rect x="110" y="123" class="st1" width="51" height="4"/>
<rect x="161" y="160" class="st1" width="50" height="4"/>
<rect x="211" y="212" class="st1" width="50" height="4"/>
<rect x="261" y="174" class="st1" width="50" height="4"/>
<rect x="311" y="133" class="st1" width="51" height="4"/>
<rect x="362" y="118" class="st1" width="50" height="4"/>
<rect x="461" y="70" class="st1" width="50" height="4"/>
<rect x="562" y="81" class="st1" width="51" height="4"/>
<rect x="511" y="91" class="st1" width="51" height="4"/>
<rect x="412" y="93" class="st1" width="49" height="4"/>
<g>
	<path d="M68.7,30h-1.1v-7.6h-4.5V30h-1.1v-8.5h6.8V30z"/>
	<path d="M76.1,26.9c0,2.1-1.1,3.3-3,3.3c-1.9,0-3-1.2-3-3.3s1.2-3.3,3-3.3S76.1,24.8,76.1,26.9z M71.2,26.9c0,1.5,0.7,2.4,2,2.4
		c1.2,0,1.9-0.9,1.9-2.4c0-1.5-0.7-2.4-1.9-2.4S71.2,25.4,71.2,26.9z"/>
	<path d="M79.9,30.2C78,30.2,77,28.9,77,27c0-2.1,1.2-3.4,3-3.4c1.5,0,2.5,0.8,2.6,2.2h-1.1c-0.2-0.9-0.7-1.3-1.6-1.3
		c-1.2,0-1.9,0.9-1.9,2.4c0,1.5,0.7,2.4,1.8,2.4c0.9,0,1.5-0.6,1.7-1.6h1C82.5,29.2,81.5,30.2,79.9,30.2z"/>
	<path d="M86.4,30.2c-1.8,0-2.9-1.2-2.9-3.2c0-2,1.2-3.4,2.9-3.4c2,0,2.8,1.6,2.8,3.4v0.1h-4.7l0,0.1c0,1.3,0.7,2.1,1.9,2.1
		c0.9,0,1.4-0.4,1.7-1.3h1C88.7,29.5,87.8,30.2,86.4,30.2z M86.3,24.5c-1,0-1.7,0.7-1.8,1.9h3.6C88,25.2,87.3,24.5,86.3,24.5z"/>
	<path d="M92.5,24.7V30h-1v-5.3h-2.2v-0.9h5.5v0.9H92.5z"/>
	<path d="M95.5,30v-6.2h1v5h0l2.8-5h1.3V30h-1v-5h0l-2.8,5H95.5z"/>
	<path d="M104.7,24.7V30h-1v-5.3h-2.2v-0.9h5.5v0.9H104.7z"/>
	<path d="M110.1,30.2c-1.8,0-2.9-1.2-2.9-3.2c0-2,1.2-3.4,2.9-3.4c2,0,2.8,1.6,2.8,3.4v0.1h-4.7l0,0.1c0,1.3,0.7,2.1,1.9,2.1
		c0.9,0,1.4-0.4,1.7-1.3h1C112.5,29.5,111.6,30.2,110.1,30.2z M110.1,24.5c-1,0-1.7,0.7-1.8,1.9h3.6
		C111.8,25.2,111.1,24.5,110.1,24.5z"/>
	<path d="M118.9,30h-1v-5.3h-2.2l-0.1,2.7c-0.1,2-0.9,2.7-1.7,2.7c-0.3,0-0.6-0.1-0.7-0.1v-0.8c0.1,0.1,0.4,0.1,0.5,0.1
		c0.4,0,0.9-0.4,0.9-1.7l0.1-3.7h4.2V30z"/>
	<path d="M123,30.2c-1.8,0-2.9-1.2-2.9-3.2c0-2,1.2-3.4,2.9-3.4c2,0,2.8,1.6,2.8,3.4v0.1h-4.7l0,0.1c0,1.3,0.7,2.1,1.9,2.1
		c0.9,0,1.4-0.4,1.7-1.3h1C125.4,29.5,124.5,30.2,123,30.2z M123,24.5c-1,0-1.7,0.7-1.8,1.9h3.6C124.7,25.2,124,24.5,123,24.5z"/>
	<path d="M126.9,30v-6.2h1v5h0l2.8-5h1.3V30h-1v-5h0l-2.8,5H126.9z M129.5,23.1c-1,0-1.7-0.7-1.8-1.7h0.6c0.2,0.6,0.6,0.9,1.2,0.9
		c0.6,0,1-0.4,1.2-0.9h0.6C131.1,22.4,130.5,23.1,129.5,23.1z"/>
	<path d="M61.8,44.4v-6.2h1v2.5h3.1v-2.5h1v6.2h-1v-2.8h-3.1v2.8H61.8z"/>
	<path d="M73.9,44.4c-0.2,0.1-0.5,0.1-0.7,0.1c-0.6,0-0.9-0.3-0.9-0.9c-0.6,0.7-1.3,1-2.2,1c-1.2,0-2-0.7-2-1.8
		c0-1.1,0.7-1.8,2.2-1.9c1.5-0.2,2-0.1,2-1c0-0.7-0.5-1-1.4-1c-0.9,0-1.4,0.3-1.5,1.3h-1c0-1.3,1-2.1,2.6-2.1c0.8,0,1.5,0.2,1.9,0.6
		c0.4,0.4,0.4,1.1,0.4,1.6c0,0.9,0,1.8,0,2.8c0,0.5,0.1,0.6,0.4,0.6c0.1,0,0.1,0,0.3,0V44.4z M70.9,41.6c-0.7,0.1-1.8,0.2-1.8,1.2
		c0,0.6,0.5,1,1.2,1c1,0,1.9-0.7,1.9-1.5v-1.1C71.9,41.5,71.4,41.5,70.9,41.6z"/>
	<path d="M80.8,44.6c-1.9,0-2.9-1.3-2.9-3.2c0-2.1,1.2-3.4,3-3.4c1.5,0,2.5,0.8,2.6,2.2h-1.1c-0.2-0.9-0.7-1.3-1.6-1.3
		c-1.2,0-1.9,0.9-1.9,2.4c0,1.5,0.7,2.4,1.8,2.4c0.9,0,1.5-0.6,1.7-1.6h1C83.4,43.6,82.4,44.6,80.8,44.6z"/>
	<path d="M90.1,44.4c-0.2,0.1-0.5,0.1-0.7,0.1c-0.6,0-0.9-0.3-0.9-0.9c-0.6,0.7-1.3,1-2.2,1c-1.2,0-2-0.7-2-1.8
		c0-1.1,0.7-1.8,2.2-1.9c1.5-0.2,2-0.1,2-1c0-0.7-0.5-1-1.4-1c-0.9,0-1.4,0.3-1.5,1.3h-1c0-1.3,1-2.1,2.6-2.1c0.8,0,1.5,0.2,1.9,0.6
		c0.4,0.4,0.4,1.1,0.4,1.6c0,0.9,0,1.8,0,2.8c0,0.5,0.1,0.6,0.4,0.6c0.1,0,0.1,0,0.3,0V44.4z M87.1,41.6c-0.7,0.1-1.8,0.2-1.8,1.2
		c0,0.6,0.5,1,1.2,1c1,0,1.9-0.7,1.9-1.5v-1.1C88.1,41.5,87.6,41.5,87.1,41.6z"/>
	<path d="M91.1,44.4v-6.2h1v5h0l2.8-5h1.3v6.2h-1v-5h0l-2.8,5H91.1z M93.7,37.5c-1,0-1.7-0.7-1.8-1.7h0.6c0.2,0.6,0.6,0.9,1.2,0.9
		c0.6,0,1-0.4,1.2-0.9h0.6C95.3,36.8,94.7,37.5,93.7,37.5z"/>
	<path d="M100.3,39.1v5.3h-1v-5.3h-2.2v-0.9h5.5v0.9H100.3z"/>
	<path d="M105.7,44.6c-1.8,0-2.9-1.2-2.9-3.2c0-2,1.2-3.4,2.9-3.4c2,0,2.8,1.6,2.8,3.4v0.1h-4.7l0,0.1c0,1.3,0.7,2.1,1.9,2.1
		c0.9,0,1.4-0.4,1.7-1.3h1C108.1,43.9,107.2,44.6,105.7,44.6z M105.6,38.9c-1,0-1.7,0.7-1.8,1.9h3.6
		C107.3,39.6,106.7,38.9,105.6,38.9z"/>
</g>
<line class="st0" x1="110.5" y1="127" x2="110.5" y2="249"/>
<line class="st0" x1="161.5" y1="165" x2="161.5" y2="249"/>
<line class="st0" x1="261.5" y1="178" x2="261.5" y2="249.5"/>
<line class="st0" x1="311.5" y1="137" x2="311.5" y2="249.5"/>
<line class="st0" x1="412.5" y1="97" x2="412.5" y2="249.5"/>
<line class="st0" x1="461.5" y1="74" x2="461.5" y2="249.5"/>
<line class="st0" x1="511.5" y1="95" x2="511.5" y2="249.5"/>
<line class="st0" x1="562.5" y1="85" x2="562.5" y2="249.5"/>
</svg>
