<svg id="Слой_1" xmlns="http://www.w3.org/2000/svg" viewBox="0 0 642 302"><style>.st0{fill:none;stroke:#CDCDCD;stroke-miterlimit:10;} .st1{fill:#E70058;}</style><path class="st0" d="M362.5 121.5v128M211.5 215.5v34M60.5 49.5v200M60.5 249.5h554M55.5 200.5h5M55 148.5h5M55 99.5h5M55 49.5h5.5"/><path d="M67.2 270v-3.4h-1.8l-2.6 3.4H61l2.8-3.4c-1.2-.2-2-1-2-2.4 0-1.6 1-2.4 2.6-2.4h4.2v8.3h-1.4zm-2.4-7.1c-1.1 0-1.6.4-1.6 1.2 0 .8.5 1.2 1.6 1.2h2.4v-2.5h-2.4zM70.6 270v-8.3H72v3.3h4.1v-3.3h1.4v8.3h-1.4v-3.8H72v3.8h-1.4zM79.5 261.7h3.8c1.4 0 2.8.3 2.8 2 0 .9-.4 1.4-1.2 1.8 1 .2 1.6.9 1.6 2 0 1.4-1 2.4-2.5 2.4h-4.5v-8.2zm5.2 2.3c0-.7-.4-1.1-1.6-1.1h-2.4v2.2h2.4c1.2 0 1.6-.4 1.6-1.1zm-3.9 4.8h2.9c.9 0 1.4-.6 1.4-1.4 0-.8-.5-1.2-1.6-1.2h-2.7v2.6zM117.8 270.2c-.6 0-1.4-.4-1.7-.8v3.8h-1.3v-3.8c-.3.4-1.1.8-1.7.8-2.5 0-3.3-2.1-3.3-4.4 0-2.6 1.2-4.2 3.2-4.2.7 0 1.5.5 1.8.9v-3.8h1.3v3.8c.3-.4 1.1-.9 1.8-.9 2 0 3.2 1.6 3.2 4.2.1 2.2-.8 4.4-3.3 4.4zm-3.1-6.4c-.3-.9-1.1-1.2-1.7-1.2-1.4 0-2 1.3-2 3.1 0 1.5.4 3.3 2.1 3.3.8 0 1.5-.5 1.6-1.1v-4.1zm3.1-1.1c-.6 0-1.4.3-1.7 1.2v4.2c.1.6.8 1.1 1.6 1.1 1.6 0 2.1-1.8 2.1-3.3 0-1.9-.6-3.2-2-3.2zM126.3 270.3c-2.4 0-3.9-1.6-3.9-4.3 0-2.7 1.6-4.5 3.8-4.5 2.7 0 3.7 2.2 3.7 4.5v.2h-6.2v.1c0 1.8 1 2.8 2.6 2.8 1.2 0 1.8-.5 2.2-1.8h1.3c-.3 2-1.6 3-3.5 3zm-.1-7.7c-1.3 0-2.3 1-2.4 2.5h4.8c-.2-1.5-1-2.5-2.4-2.5zM131.4 261.7h3.8c1.4 0 2.8.3 2.8 2 0 .9-.4 1.4-1.2 1.8 1 .2 1.6.9 1.6 2 0 1.4-1 2.4-2.5 2.4h-4.5v-8.2zm5.2 2.3c0-.7-.4-1.1-1.6-1.1h-2.4v2.2h2.4c1.2 0 1.6-.4 1.6-1.1zm-3.9 4.8h2.9c.9 0 1.4-.6 1.4-1.4 0-.8-.5-1.2-1.6-1.2h-2.7v2.6zM169.6 270v-6.5l-2.4 6.5H166l-2.4-6.5v6.5H162v-8.3h2l2.5 6.7 2.5-6.7h2v8.3h-1.4zM180.3 270c-.3.1-.6.2-.9.2-.8 0-1.2-.4-1.2-1.2-.8.9-1.7 1.3-3 1.3-1.6 0-2.6-.9-2.6-2.3 0-1.5 1-2.3 2.9-2.6 2-.2 2.6-.2 2.6-1.3 0-.9-.7-1.4-1.9-1.4-1.3 0-1.9.5-2 1.7h-1.3c0-1.8 1.3-2.8 3.5-2.8 1.1 0 2 .3 2.6.8.6.6.6 1.4.6 2.1 0 1.2-.1 2.4-.1 3.7 0 .6.1.8.6.8h.3v1zm-4-3.8c-1 .1-2.3.2-2.3 1.6 0 .8.6 1.4 1.6 1.4 1.3 0 2.5-.9 2.5-1.9v-1.5c-.5.3-1.2.3-1.8.4zM182.9 262.9c.6-1 1.6-1.4 2.8-1.4 2.3 0 3.8 1.7 3.8 4.3 0 2.7-1.4 4.4-3.7 4.4-1.2 0-2.1-.4-2.8-1.4v4.3h-1.4v-11.4h1.3v1.2zm0 2.9c0 2 1 3.2 2.6 3.2s2.5-1.2 2.5-3.2-1-3.2-2.6-3.2-2.5 1.2-2.5 3.2zM219.6 270v-6.5l-2.4 6.5H216l-2.4-6.5v6.5H212v-8.3h2l2.5 6.7 2.5-6.7h2v8.3h-1.4zM230.3 270c-.3.1-.6.2-.9.2-.8 0-1.2-.4-1.2-1.2-.8.9-1.7 1.3-3 1.3-1.6 0-2.6-.9-2.6-2.3 0-1.5 1-2.3 2.9-2.6 2-.2 2.6-.2 2.6-1.3 0-.9-.7-1.4-1.9-1.4-1.3 0-1.9.5-2 1.7h-1.3c0-1.8 1.3-2.8 3.5-2.8 1.1 0 2 .3 2.6.8.6.6.6 1.4.6 2.1 0 1.2-.1 2.4-.1 3.7 0 .6.1.8.6.8h.3v1zm-4-3.8c-1 .1-2.3.2-2.3 1.6 0 .8.6 1.4 1.6 1.4 1.3 0 2.5-.9 2.5-1.9v-1.5c-.5.3-1.2.3-1.8.4zM231.6 270v-8.3h1.4v6.7l3.7-6.7h1.7v8.3H237v-6.7l-3.7 6.7h-1.7zm3.4-9.2c-1.3 0-2.3-.9-2.4-2.2h.8c.2.8.8 1.2 1.6 1.2s1.3-.5 1.6-1.2h.8c-.2 1.3-1 2.2-2.4 2.2zM262 270v-8.3h1.4v6.7l3.7-6.7h1.7v8.3h-1.4v-6.7l-3.7 6.7H262zM281.6 265.8c0 2.8-1.4 4.4-3.8 4.4-2.3 0-3.8-1.5-3.9-4h-1.6v3.8h-1.4v-8.3h1.4v3.3h1.7c.3-2.2 1.7-3.5 3.8-3.5 2.4 0 3.8 1.6 3.8 4.3zm-6.3.1c0 2 .9 3.2 2.5 3.2 1.5 0 2.4-1.2 2.4-3.2s-.9-3.2-2.4-3.2c-1.6-.1-2.5 1.2-2.5 3.2zM283.2 270v-8.3h1.4v3.3h4.1v-3.3h1.4v8.3h-1.4v-3.8h-4.1v3.8h-1.4zM296.4 270H292v-8.3h1.4v3.2h2.9c1.6 0 2.7 1 2.7 2.5 0 1.6-1 2.6-2.6 2.6zm-3-3.9v2.7h2.5c1.1 0 1.7-.5 1.7-1.4s-.6-1.4-1.7-1.4h-2.5zM312 270v-8.3h1.4v6.7l3.7-6.7h1.7v8.3h-1.4v-6.7l-3.7 6.7H312zM331.6 265.8c0 2.8-1.4 4.4-3.8 4.4-2.3 0-3.8-1.5-3.9-4h-1.6v3.8h-1.4v-8.3h1.4v3.3h1.7c.3-2.2 1.7-3.5 3.8-3.5 2.4 0 3.8 1.6 3.8 4.3zm-6.3.1c0 2 .9 3.2 2.5 3.2 1.5 0 2.4-1.2 2.4-3.2s-.9-3.2-2.4-3.2c-1.6-.1-2.5 1.2-2.5 3.2zM339.5 270h-1.4v-7.1h-2.9l-.1 3.6c-.1 2.7-1.1 3.6-2.3 3.6-.4 0-.8-.1-1-.2v-1.1c.2.1.5.1.7.1.5 0 1.2-.5 1.2-2.3l.1-5h5.6v8.4zM345.9 270h-4.4v-8.3h1.4v3.2h2.9c1.6 0 2.7 1 2.7 2.5 0 1.6-1 2.6-2.6 2.6zm-3-3.9v2.7h2.5c1.1 0 1.7-.5 1.7-1.4s-.6-1.4-1.7-1.4h-2.5zM371.3 270c-.3.1-.6.2-.9.2-.8 0-1.2-.4-1.2-1.2-.8.9-1.7 1.3-3 1.3-1.6 0-2.6-.9-2.6-2.3 0-1.5 1-2.3 2.9-2.6 2-.2 2.6-.2 2.6-1.3 0-.9-.7-1.4-1.9-1.4-1.3 0-1.9.5-2 1.7h-1.3c0-1.8 1.3-2.8 3.5-2.8 1.1 0 2 .3 2.6.8.6.6.6 1.4.6 2.1 0 1.2-.1 2.4-.1 3.7 0 .6.1.8.6.8h.3v1zm-4-3.8c-1 .1-2.3.2-2.3 1.6 0 .8.6 1.4 1.6 1.4 1.3 0 2.5-.9 2.5-1.9v-1.5c-.5.3-1.2.3-1.8.4zM372.6 261.7h3.8c1.4 0 2.8.3 2.8 2 0 .9-.4 1.4-1.2 1.8 1 .2 1.6.9 1.6 2 0 1.4-1 2.4-2.5 2.4h-4.5v-8.2zm5.2 2.3c0-.7-.4-1.1-1.6-1.1h-2.4v2.2h2.4c1.2 0 1.6-.4 1.6-1.1zm-3.9 4.8h2.9c.9 0 1.4-.6 1.4-1.4 0-.8-.5-1.2-1.6-1.2h-2.7v2.6zM382.6 262.9v7.1h-1.4v-8.3h5.7v1.2h-4.3zM416.5 270.2c-2.6 0-3.9-1.7-3.9-4.3 0-2.8 1.5-4.5 4-4.5 2 0 3.3 1.1 3.5 2.9h-1.4c-.2-1.2-1-1.8-2.1-1.8-1.6 0-2.6 1.2-2.6 3.2s.9 3.2 2.5 3.2c1.2 0 2-.8 2.3-2.1h1.4c-.3 2.2-1.6 3.4-3.7 3.4zM425.1 270.3c-2.4 0-3.9-1.6-3.9-4.3 0-2.7 1.6-4.5 3.8-4.5 2.7 0 3.7 2.2 3.7 4.5v.2h-6.2v.1c0 1.8 1 2.8 2.6 2.8 1.2 0 1.8-.5 2.2-1.8h1.3c-.3 2-1.6 3-3.5 3zm-.1-7.7c-1.3 0-2.3 1-2.4 2.5h4.8c-.2-1.5-1-2.5-2.4-2.5zM430.2 270v-8.3h1.4v3.3h4.1v-3.3h1.4v8.3h-1.4v-3.8h-4.1v3.8h-1.4zM469.6 266.8c0 2.8-1.5 4.4-4 4.4s-4-1.6-4-4.4 1.6-4.4 4-4.4c2.5.1 4 1.7 4 4.4zm-6.6.1c0 2 1 3.2 2.6 3.2s2.6-1.2 2.6-3.2-1-3.2-2.6-3.2-2.6 1.2-2.6 3.2zM476.9 271l-3-4.1-1.3 1.3v2.8h-1.4v-8.3h1.4v3.9l3.8-3.9h1.8l-3.3 3.2 3.8 5h-1.8zM482.9 263.9v7.1h-1.4v-7.1h-3v-1.2h7.3v1.2h-2.9zM513 270v-8.3h1.4v3.3h4.1v-3.3h1.4v8.3h-1.4v-3.8h-4.1v3.8H513zM529.5 265.8c0 2.8-1.5 4.4-4 4.4s-4-1.6-4-4.4 1.6-4.4 4-4.4 4 1.7 4 4.4zm-6.6.1c0 2 1 3.2 2.6 3.2s2.6-1.2 2.6-3.2-1-3.2-2.6-3.2-2.6 1.2-2.6 3.2zM536.3 270v-3.4h-1.8l-2.6 3.4H530l2.8-3.4c-1.2-.2-2-1-2-2.4 0-1.6 1-2.4 2.6-2.4h4.2v8.3h-1.3zm-2.4-7.1c-1.1 0-1.6.4-1.6 1.2 0 .8.5 1.2 1.6 1.2h2.4v-2.5h-2.4zM570.7 272.6V270h-6.3v2.6h-1.3v-3.8h.9c.5-.9 1-3.2 1-5.3v-1.8h5.9v7.1h1.1v3.8h-1.3zm-1.1-9.7h-3.2v.7c0 2.1-.5 4.3-1 5.2h4.2v-5.9zM576.7 270.3c-2.4 0-3.9-1.6-3.9-4.3 0-2.7 1.6-4.5 3.8-4.5 2.7 0 3.7 2.2 3.7 4.5v.2h-6.2v.1c0 1.8 1 2.8 2.6 2.8 1.2 0 1.8-.5 2.2-1.8h1.3c-.3 2-1.6 3-3.5 3zm-.1-7.7c-1.3 0-2.3 1-2.4 2.5h4.8c-.2-1.5-1.1-2.5-2.4-2.5zM587.5 270l-3-4.1-1.3 1.3v2.8h-1.4v-8.3h1.4v3.9l3.8-3.9h1.8l-3.3 3.2 3.8 5h-1.8z"/><g><path d="M17.7 160h-1.5v-8.2h-2.8v-1c1.7 0 2.9-.4 3.3-2.1h1.1V160zM29.1 154.6c0 2.7-.5 5.6-3.7 5.6-3.4 0-3.8-2.9-3.8-5.7s.3-5.9 3.8-5.9c3.5.1 3.7 3.3 3.7 6zm-6.1 0c0 1.7 0 4.4 2.4 4.4s2.3-2.9 2.3-4.5c0-1.7 0-4.6-2.3-4.6-2.5 0-2.4 2.9-2.4 4.7zM38 154.6c0 2.7-.5 5.6-3.7 5.6-3.4 0-3.8-2.9-3.8-5.7s.3-5.9 3.8-5.9c3.5.1 3.7 3.3 3.7 6zm-6.1 0c0 1.7 0 4.4 2.4 4.4s2.3-2.9 2.3-4.5c0-1.7 0-4.6-2.3-4.6-2.5 0-2.4 2.9-2.4 4.7zM46.9 154.6c0 2.7-.5 5.6-3.7 5.6-3.4 0-3.8-2.9-3.8-5.7s.3-5.9 3.8-5.9c3.5.1 3.7 3.3 3.7 6zm-6.1 0c0 1.7 0 4.4 2.4 4.4s2.3-2.9 2.3-4.5c0-1.7 0-4.6-2.3-4.6-2.5 0-2.4 2.9-2.4 4.7z"/></g><g><path d="M28.5 202.1h-4.6l-.7 3.4c.6-.7 1.4-.9 2.3-.9 2.1 0 3.6 1.5 3.6 3.7 0 2.3-1.6 4-3.9 4-2.2 0-3.6-1.3-3.7-3.3h1.4c.1 1.3 1 2.1 2.3 2.1 1.4 0 2.5-1.2 2.5-2.7 0-1.6-1-2.7-2.5-2.7-.9 0-1.7.4-2.2 1.1l-1.2-.1 1.1-5.9h5.6v1.3zM38.1 206.6c0 2.7-.5 5.6-3.7 5.6-3.4 0-3.8-2.9-3.8-5.7s.3-5.9 3.8-5.9c3.5.1 3.7 3.3 3.7 6zm-6.1 0c0 1.7 0 4.4 2.4 4.4s2.3-2.9 2.3-4.5c0-1.7 0-4.6-2.3-4.6-2.5 0-2.4 2.9-2.4 4.7zM47 206.6c0 2.7-.5 5.6-3.7 5.6-3.4 0-3.8-2.9-3.8-5.7s.3-5.9 3.8-5.9c3.5.1 3.7 3.3 3.7 6zm-6.1 0c0 1.7 0 4.4 2.4 4.4s2.3-2.9 2.3-4.5c0-1.7 0-4.6-2.3-4.6-2.5 0-2.4 2.9-2.4 4.7z"/></g><g><path d="M17.7 111h-1.5v-8.2h-2.8v-1c1.7 0 2.9-.4 3.3-2.1h1.1V111zM28.4 101.1h-4.6l-.7 3.4c.6-.7 1.4-.9 2.3-.9 2.1 0 3.6 1.5 3.6 3.7 0 2.3-1.6 4-3.9 4-2.2 0-3.6-1.3-3.7-3.3h1.4c.1 1.3 1 2.1 2.3 2.1 1.4 0 2.5-1.2 2.5-2.7 0-1.6-1-2.7-2.5-2.7-.9 0-1.7.4-2.2 1.1l-1.2-.1 1.1-5.9h5.6v1.3zM38 105.6c0 2.7-.5 5.6-3.7 5.6-3.4 0-3.8-2.9-3.8-5.7s.3-5.9 3.8-5.9c3.5.1 3.7 3.3 3.7 6zm-6.1 0c0 1.7 0 4.4 2.4 4.4s2.3-2.9 2.3-4.5c0-1.7 0-4.6-2.3-4.6-2.5 0-2.4 2.9-2.4 4.7zM46.9 105.6c0 2.7-.5 5.6-3.7 5.6-3.4 0-3.8-2.9-3.8-5.7s.3-5.9 3.8-5.9c3.5.1 3.7 3.3 3.7 6zm-6.1 0c0 1.7 0 4.4 2.4 4.4s2.3-2.9 2.3-4.5c0-1.7 0-4.6-2.3-4.6-2.5 0-2.4 2.9-2.4 4.7z"/></g><g><path d="M19.8 61h-7.4c.1-2.6 1.4-3.5 3.4-4.8 1.2-.8 2.7-1.6 2.7-3.2 0-1.3-.9-2.1-2.2-2.1-1.7 0-2.2 1.4-2.2 2.8h-1.4v-.3c0-2.2 1.5-3.7 3.6-3.7s3.5 1.3 3.5 3.3c0 2.2-1.7 3.3-3.4 4.3-1 .6-2.2 1.3-2.5 2.5h5.8V61zM29.1 55.6c0 2.7-.5 5.6-3.7 5.6-3.4 0-3.8-2.9-3.8-5.7s.3-5.9 3.8-5.9c3.5.1 3.7 3.3 3.7 6zm-6.1 0c0 1.7 0 4.4 2.4 4.4s2.3-2.9 2.3-4.5c0-1.7 0-4.6-2.3-4.6-2.5 0-2.4 2.9-2.4 4.7zM38 55.6c0 2.7-.5 5.6-3.7 5.6-3.4 0-3.8-2.9-3.8-5.7s.3-5.9 3.8-5.9c3.5.1 3.7 3.3 3.7 6zm-6.1 0c0 1.7 0 4.4 2.4 4.4s2.3-2.9 2.3-4.5c0-1.7 0-4.6-2.3-4.6-2.5 0-2.4 2.9-2.4 4.7zM46.9 55.6c0 2.7-.5 5.6-3.7 5.6-3.4 0-3.8-2.9-3.8-5.7s.3-5.9 3.8-5.9c3.5.1 3.7 3.3 3.7 6zm-6.1 0c0 1.7 0 4.4 2.4 4.4s2.3-2.9 2.3-4.5c0-1.7 0-4.6-2.3-4.6-2.5 0-2.4 2.9-2.4 4.7z"/></g><path class="st1" d="M61 149h49v4H61zM110 123h51v4h-51zM161 160h50v4h-50zM211 212h50v4h-50zM261 174h50v4h-50zM311 133h51v4h-51zM362 118h50v4h-50zM461 70h50v4h-50zM562 81h51v4h-51zM511 91h51v4h-51zM412 93h49v4h-49z"/><g><path d="M68.7 30h-1.1v-7.6h-4.5V30H62v-8.5h6.8V30zM76.1 26.9c0 2.1-1.1 3.3-3 3.3s-3-1.2-3-3.3 1.2-3.3 3-3.3 3 1.2 3 3.3zm-4.9 0c0 1.5.7 2.4 2 2.4 1.2 0 1.9-.9 1.9-2.4s-.7-2.4-1.9-2.4-2 .9-2 2.4zM79.9 30.2C78 30.2 77 28.9 77 27c0-2.1 1.2-3.4 3-3.4 1.5 0 2.5.8 2.6 2.2h-1.1c-.2-.9-.7-1.3-1.6-1.3-1.2 0-1.9.9-1.9 2.4s.7 2.4 1.8 2.4c.9 0 1.5-.6 1.7-1.6h1c0 1.5-1 2.5-2.6 2.5zM86.4 30.2c-1.8 0-2.9-1.2-2.9-3.2s1.2-3.4 2.9-3.4c2 0 2.8 1.6 2.8 3.4v.1h-4.7v.1c0 1.3.7 2.1 1.9 2.1.9 0 1.4-.4 1.7-1.3h1c-.4 1.5-1.3 2.2-2.7 2.2zm-.1-5.7c-1 0-1.7.7-1.8 1.9h3.6c-.1-1.2-.8-1.9-1.8-1.9zM92.5 24.7V30h-1v-5.3h-2.2v-.9h5.5v.9h-2.3zM95.5 30v-6.2h1v5l2.8-5h1.3V30h-1v-5l-2.8 5h-1.3zM104.7 24.7V30h-1v-5.3h-2.2v-.9h5.5v.9h-2.3zM110.1 30.2c-1.8 0-2.9-1.2-2.9-3.2s1.2-3.4 2.9-3.4c2 0 2.8 1.6 2.8 3.4v.1h-4.7v.1c0 1.3.7 2.1 1.9 2.1.9 0 1.4-.4 1.7-1.3h1c-.3 1.5-1.2 2.2-2.7 2.2zm0-5.7c-1 0-1.7.7-1.8 1.9h3.6c-.1-1.2-.8-1.9-1.8-1.9zM118.9 30h-1v-5.3h-2.2l-.1 2.7c-.1 2-.9 2.7-1.7 2.7-.3 0-.6-.1-.7-.1v-.8c.1.1.4.1.5.1.4 0 .9-.4.9-1.7l.1-3.7h4.2V30zM123 30.2c-1.8 0-2.9-1.2-2.9-3.2s1.2-3.4 2.9-3.4c2 0 2.8 1.6 2.8 3.4v.1h-4.7v.1c0 1.3.7 2.1 1.9 2.1.9 0 1.4-.4 1.7-1.3h1c-.3 1.5-1.2 2.2-2.7 2.2zm0-5.7c-1 0-1.7.7-1.8 1.9h3.6c-.1-1.2-.8-1.9-1.8-1.9zM126.9 30v-6.2h1v5l2.8-5h1.3V30h-1v-5l-2.8 5h-1.3zm2.6-6.9c-1 0-1.7-.7-1.8-1.7h.6c.2.6.6.9 1.2.9s1-.4 1.2-.9h.6c-.2 1-.8 1.7-1.8 1.7zM61.8 44.4v-6.2h1v2.5h3.1v-2.5h1v6.2h-1v-2.8h-3.1v2.8h-1zM73.9 44.4c-.2.1-.5.1-.7.1-.6 0-.9-.3-.9-.9-.6.7-1.3 1-2.2 1-1.2 0-2-.7-2-1.8s.7-1.8 2.2-1.9c1.5-.2 2-.1 2-1 0-.7-.5-1-1.4-1-.9 0-1.4.3-1.5 1.3h-1c0-1.3 1-2.1 2.6-2.1.8 0 1.5.2 1.9.6.4.4.4 1.1.4 1.6v2.8c0 .5.1.6.4.6h.3v.7zm-3-2.8c-.7.1-1.8.2-1.8 1.2 0 .6.5 1 1.2 1 1 0 1.9-.7 1.9-1.5v-1.1c-.3.3-.8.3-1.3.4zM80.8 44.6c-1.9 0-2.9-1.3-2.9-3.2 0-2.1 1.2-3.4 3-3.4 1.5 0 2.5.8 2.6 2.2h-1.1c-.2-.9-.7-1.3-1.6-1.3-1.2 0-1.9.9-1.9 2.4s.7 2.4 1.8 2.4c.9 0 1.5-.6 1.7-1.6h1c0 1.5-1 2.5-2.6 2.5zM90.1 44.4c-.2.1-.5.1-.7.1-.6 0-.9-.3-.9-.9-.6.7-1.3 1-2.2 1-1.2 0-2-.7-2-1.8s.7-1.8 2.2-1.9c1.5-.2 2-.1 2-1 0-.7-.5-1-1.4-1-.9 0-1.4.3-1.5 1.3h-1c0-1.3 1-2.1 2.6-2.1.8 0 1.5.2 1.9.6.4.4.4 1.1.4 1.6v2.8c0 .5.1.6.4.6h.3v.7zm-3-2.8c-.7.1-1.8.2-1.8 1.2 0 .6.5 1 1.2 1 1 0 1.9-.7 1.9-1.5v-1.1c-.3.3-.8.3-1.3.4zM91.1 44.4v-6.2h1v5l2.8-5h1.3v6.2h-1v-5l-2.8 5h-1.3zm2.6-6.9c-1 0-1.7-.7-1.8-1.7h.6c.2.6.6.9 1.2.9s1-.4 1.2-.9h.6c-.2 1-.8 1.7-1.8 1.7zM100.3 39.1v5.3h-1v-5.3h-2.2v-.9h5.5v.9h-2.3zM105.7 44.6c-1.8 0-2.9-1.2-2.9-3.2s1.2-3.4 2.9-3.4c2 0 2.8 1.6 2.8 3.4v.1h-4.7v.1c0 1.3.7 2.1 1.9 2.1.9 0 1.4-.4 1.7-1.3h1c-.3 1.5-1.2 2.2-2.7 2.2zm-.1-5.7c-1 0-1.7.7-1.8 1.9h3.6c-.1-1.2-.7-1.9-1.8-1.9z"/></g><path class="st0" d="M110.5 127v122M161.5 165v84M261.5 178v71.5M311.5 137v112.5M412.5 97v152.5M461.5 74v175.5M511.5 95v154.5M562.5 85v164.5"/></svg>